<?xml version="1.0" encoding="UTF-8" standalone="no"?>
<!-- Created with Inkscape (http://www.inkscape.org/) -->

<svg
   width="1280"
   height="900"
   viewBox="0 0 338.66666 238.125"
   version="1.1"
   id="svg4208"
   inkscape:version="1.2.2 (b0a8486541, 2022-12-01)"
   sodipodi:docname="streams.svg"
   xmlns:inkscape="http://www.inkscape.org/namespaces/inkscape"
   xmlns:sodipodi="http://sodipodi.sourceforge.net/DTD/sodipodi-0.dtd"
   xmlns="http://www.w3.org/2000/svg"
   xmlns:svg="http://www.w3.org/2000/svg">
  <sodipodi:namedview
     id="namedview4210"
     pagecolor="#ffffff"
     bordercolor="#000000"
     borderopacity="0.25"
     inkscape:showpageshadow="2"
     inkscape:pageopacity="0.0"
     inkscape:pagecheckerboard="0"
     inkscape:deskcolor="#d1d1d1"
     inkscape:document-units="mm"
     showgrid="false"
     inkscape:zoom="0.78127806"
     inkscape:cx="705.25467"
     inkscape:cy="362.86697"
     inkscape:window-width="2560"
     inkscape:window-height="1376"
     inkscape:window-x="1920"
     inkscape:window-y="27"
     inkscape:window-maximized="1"
     inkscape:current-layer="layer1" />
  <defs
     id="defs4205" />
  <g
     inkscape:label="Layer 1"
     inkscape:groupmode="layer"
     id="layer1">
    <path
       style="fill:#00222b;stroke-width:0.232966"
       d="M 125.20641,-5.6070695 C 108.85418,-11.999959 93.73758,4.1495616 91.255735,19.325778 87.699828,39.395899 66.339466,44.832814 47.578921,49.116405 30.928187,53.2255 15.336002,60.864831 1.5485845,72.501679 -9.1982825,79.357556 -14.108811,91.577358 -19.449074,102.09491 -28.097784,118.72086 2.7906545,108.00692 6.3011742,98.80228 16.890632,84.013633 27.764814,67.645888 46.077035,61.796361 62.906407,55.752828 79.388858,48.655426 97.060238,45.373017 c 28.472782,-7.49247 68.861432,-57.045206 52.643912,-59.509446 -7.68798,3.289938 -18.79411,3.881645 -24.49774,8.5293595 z"
       id="path4392"
       sodipodi:nodetypes="cccccccccc" />
    <path
       style="fill:#0088aa;stroke-width:0.443577"
       d="m 158.71219,238.71489 c 15.86802,-38.47383 42.82493,-71.99616 75.17094,-97.91037 30.65421,-21.62693 71.00661,-25.06167 99.36434,-50.545676 16.58402,-12.160702 35.03315,-26.348739 38.92055,-47.861582 7.77439,-11.278355 -1.82442,-37.1156193 -17.25765,-25.870377 -12.76462,8.579344 -25.20672,17.587687 -38.30379,25.66352 -13.37529,9.216527 -24.43207,21.321579 -33.82186,34.455283 -21.22004,22.531668 -51.99387,31.541232 -76.37704,49.778652 -20.29812,11.43594 -43.34389,21.26764 -55.996,41.98938 -13.92994,15.52669 -19.38187,36.21504 -23.87592,56.03119 -4.9846,13.49903 -17.21498,26.19136 -12.72679,41.58873 8.76856,13.29198 27.19895,2.3422 30.85501,-9.82719 3.77338,-6.44259 7.46232,-13.4784 14.04821,-17.49156 z"
       id="path4564" />
    <path
       style="fill:#004455;fill-opacity:1;stroke-width:0.549269"
       d="M 73.747103,-13.975343 C 68.281864,13.957585 36.584162,19.871482 14.296815,29.043369 1.3010489,32.214944 -32.454325,54.061825 -11.37642,62.725948 13.712836,55.287364 36.981581,41.814361 54.737604,22.547321 c 8.09066,-9.534878 40.252155,-27.4663091 25.080972,-39.004627 -2.254916,-0.113745 -4.55156,0.798223 -6.071473,2.481963 z"
       id="path4724" />
    <path
       style="fill:#004455;fill-opacity:1;stroke-width:0.443577"
       d="m 376.11765,140.10759 c -1.00467,0.61032 -1.97571,1.27976 -3.01399,1.83095 -4.29569,2.28043 -9.5535,2.77114 -14.20879,4.08851 -5.41435,1.53217 -10.6677,3.56027 -16.08887,5.06609 -3.38822,0.94113 -6.88192,1.49627 -10.23614,2.55221 -3.08909,0.97248 -5.6452,2.5302 -8.39024,4.13764 -1.9728,1.15524 -3.98939,2.23446 -6.00255,3.31784 -0.57363,0.3087 -1.21364,0.50129 -1.74791,0.87398 -2.43457,1.69826 -3.5596,4.46168 -5.37625,6.67524 -1.30571,1.59101 -1.62532,2.04403 -3.09514,3.40743 -0.79139,0.73409 -1.69793,1.34749 -2.42879,2.14185 -0.49053,0.53317 -0.78014,1.22205 -1.20563,1.80843 -0.35975,0.49574 -0.81009,0.92398 -1.14794,1.4349 -1.11677,1.68888 -1.60375,3.01393 -2.5664,4.81632 -1.62054,3.03413 -3.32029,5.99717 -5.64405,8.55159 -1.48235,1.62951 -3.35185,2.71762 -4.89199,4.26923 -1.55152,1.56306 -2.69078,3.25958 -4.52411,4.54923 -4.22582,2.97265 -9.03399,4.91676 -13.2491,7.91247 -2.60114,1.84865 -4.85636,4.19234 -7.52003,5.97026 -1.04773,0.69934 -2.35841,1.00452 -3.40654,1.70327 -0.64424,0.4295 -0.62934,0.82886 -1.13552,1.4194 -0.8789,1.02538 -1.95628,1.86568 -2.86485,2.86485 -1.72492,1.89694 -3.04838,4.10925 -4.63722,6.09765 -2.17139,2.71746 -5.16227,4.87782 -7.73979,7.172 -0.86344,0.76851 -1.40382,1.86668 -2.30438,2.59133 -0.6471,0.52071 -1.47371,0.77301 -2.16555,1.23262 -1.64794,1.09478 -3.19153,2.33906 -4.79004,3.50486 -3.39148,2.47341 -6.22339,5.6363 -9.18143,8.59434 -1.40121,1.40121 -2.70761,2.80788 -4.00543,4.28934 -2.79989,3.19606 -5.47213,5.87535 -2.28233,9.98283 1.92872,2.48357 4.64015,3.465 7.13849,5.13057 0.50723,0.33816 0.8844,0.86717 1.42869,1.14172 6.72953,3.39454 11.81364,3.61751 18.92155,1.39478 2.07373,-0.64846 3.56114,-1.4054 5.15799,-2.80262 1.70735,-1.49395 2.69662,-3.6109 4.12955,-5.34977 1.37028,-1.66283 3.35748,-2.78622 4.87211,-4.3013 1.334,-1.33441 0.46651,-1.04333 1.7199,-2.57525 1.53893,-1.88092 3.55211,-3.55214 5.26708,-5.26712 0.37851,-0.3785 0.8688,-0.6714 1.13552,-1.13551 0.44308,-0.771 0.61146,-1.67055 0.9497,-2.49295 1.40582,-3.41807 3.58496,-9.16994 6.2958,-11.91828 2.69071,-2.72795 7.11857,-2.86542 10.31209,-4.76218 1.866,-1.10828 3.47328,-4.63042 5.21851,-5.50504 1.6051,-0.80442 5.09563,-1.48855 6.79285,-1.74656 2.37687,-0.36133 3.26134,0.11868 5.10214,-1.23965 1.53381,-1.13182 2.24565,-2.85077 3.71961,-4.00709 2.16714,-1.70011 4.83193,-2.4931 7.08297,-4.00162 2.05298,-1.37579 2.57461,-3.7178 4.01339,-5.54478 2.33255,-2.96186 6.02815,-4.18026 8.81002,-6.61811 1.53001,-1.34079 2.93342,-2.81404 4.59155,-4.01755 3.38159,-2.45444 0.43799,-0.11267 2.93895,-2.05303 0.98487,-0.76412 1.81937,-1.75277 2.92266,-2.33296 0.81043,-0.42619 1.72677,-0.6122 2.57375,-0.96017 1.03235,-0.42414 2.04116,-0.90343 3.06176,-1.35515 1.99833,-0.65653 4.02906,-1.22173 5.99505,-1.9696 3.34189,-1.27126 6.04419,-3.7967 9.37072,-5.15801 4.37299,-1.78954 9.22383,-2.42462 13.48869,-4.49198 1.33849,-0.64881 8.84266,-5.22549 10.02152,-6.11842 1.51259,-1.14573 2.78217,-2.58322 4.23238,-3.80698 3.32924,-2.80935 8.8217,-5.61618 11.19202,-9.40869 0.98962,-1.58339 0.69212,-3.74423 -0.005,-5.40169 -1.53395,-3.64544 -6.14795,-5.76407 -9.46328,-7.21344 -1.03281,-0.45152 -3.63538,-1.55732 -4.85631,-2.25238 -0.91772,-0.52243 0.60142,-0.0834 -0.85164,-0.56776 -1.02305,-0.34102 -2.12408,-0.42366 -3.12267,-0.85163 -0.38895,-0.16671 -0.73406,-0.43394 -1.13552,-0.56776 -0.26182,-0.0873 -0.57878,0.11869 -0.82794,0 -0.62912,-0.2997 1.47945,-4.09952 -2.3433,-2.7287 z"
       id="path4858" />
    <path
       style="fill:#004455;fill-opacity:1;stroke-width:0.461757"
       d="m -16.770741,26.993236 c 0.905782,0 2.255994,0.108372 3.135359,-0.295515 0.672555,-0.308899 1.181916,-0.907754 1.847393,-1.231618 3.6855845,-1.793655 7.9463124,-2.551162 11.29315044,-5.04462 0.9482987,-0.7065 1.69765596,-1.648469 2.49866276,-2.518412 0.6125538,-0.665272 0.9966936,-1.565325 1.7381626,-2.083043 1.3400953,-0.935699 2.8856195,-1.543774 4.3856643,-2.192814 4.5203749,-1.955877 9.8401599,-2.995803 13.8946959,-5.9432163 1.439944,-1.0467561 2.375915,-2.9703596 4.042822,-3.7437735 4.386156,-2.0350959 9.235383,-3.01114058 13.724571,-4.74038358 1.179006,-0.1715543 1.731142,-1.40863572 2.747499,-1.83073592 0.769168,-0.3194414 1.659049,-0.2784922 2.422836,-0.6105971 0.407436,-0.177159 4.102308,-2.8203872 4.207678,-2.9186119 2.065851,-1.9257737 2.380134,-3.0392187 3.938715,-5.3743737 0.575079,-0.861619 1.145041,-1.731401 1.805618,-2.529361 2.430904,-2.936463 9.702878,-7.969332 6.607214,-12.607044 -2.802834,-4.199009 -8.556616,-5.141167 -13.081314,-6.341991 -4.428753,-1.17536 -9.380379,-2.785249 -14.046995,-2.173542 -5.538254,0.725963 -10.795779,3.172157 -16.137092,4.672954 -9.2071766,2.587021 -0.984918,0.443077 -9.4566526,1.263398 -2.5361608,0.245579 -4.8106325,1.628275 -7.3288242,1.980685 -1.45535366,0.203673 -2.9333016,0.191028 -4.3961978,0.330569 -1.6292596,0.155409 -3.2338739,0.530773 -4.8654409,0.659721 -0.58919,0.04656 -1.189787,-0.09529 -1.773082,0 -2.1279645,0.347626 -1.4465435,0.786016 -3.4165145,0.909906 -1.943757,0.122241 -11.293348,-0.558678 -13.001732,0.295513 -0.694205,0.347103 -1.890071,1.526837 -2.364111,2.068596 -1.290254,1.474576 -3.178416,6.303459 -3.564272,8.346906 -0.16807,0.89008 -0.158386,1.806392 -0.305036,2.700251 -0.207811,1.266645 -0.818114,2.493375 -0.757398,3.775518 0.151398,3.1970733 1.717037,9.6961498 3.000228,12.8949464 1.377859,3.4347884 3.277041,6.6383446 4.800293,10.0111726 0.678422,1.502184 1.786405,2.949105 1.82178,4.597 0.01539,0.716959 -0.670221,1.355859 -0.591027,2.068596 0.218617,1.967554 0.648932,1.640686 1.78715,2.969187 1.595979,1.862791 1.786061,2.751428 4.318928,4.025796 0.349747,0.175968 1.277038,0 1.6386,0 0.329695,0 1.459824,0.168646 1.646609,0 0.135611,-0.122443 -1.296019,-0.775182 -2.21794,-1.391063 z"
       id="path4868" />
    <path
       style="fill:#00222b;fill-opacity:1;stroke-width:0.443577"
       d="m 180.41179,233.50822 c 0.80657,-1.44063 -0.69688,-2.63961 -0.61717,-3.97964 0.15505,-2.60646 1.66239,-11.9071 2.91101,-14.66184 0.87619,-1.93309 2.08659,-3.72308 3.4403,-5.3577 1.04848,-1.26606 2.47417,-2.16517 3.69833,-3.26229 1.71746,-1.53923 3.49024,-3.02112 5.12632,-4.64657 1.49912,-1.48939 2.8058,-3.16211 4.26851,-4.68727 1.80729,-1.88446 3.6914,-3.69371 5.53883,-5.53883 1.67683,-1.67473 3.22935,-3.48452 5.03393,-5.02073 3.61868,-3.08052 8.29773,-6.03426 12.12384,-9.00296 4.59432,-3.56475 9.06802,-7.31563 13.7698,-10.74377 0.52422,-0.38222 5.08939,-3.20213 5.76013,-3.63259 1.22964,-0.78916 2.46575,-1.57163 3.64711,-2.43139 0.52,-0.37845 0.93404,-0.91206 1.50609,-1.20597 3.65164,-1.87613 7.88376,-1.73999 11.53966,-3.56964 0.70662,-0.35364 1.30226,-0.89622 1.97239,-1.3149 3.24183,-2.02539 6.82051,-4.42497 10.39852,-5.81557 3.81113,-1.4812 7.96612,-2.0945 11.85467,-3.3338 5.8604,-1.86774 11.32165,-4.70853 17.07875,-6.82143 6.17427,-2.26599 12.50584,-4.16632 18.74483,-6.24599 5.26699,-1.75568 10.66826,-3.21254 15.8686,-5.15748 2.92049,-1.09226 5.39684,-2.82892 8.23064,-4.07973 4.53588,-2.00213 9.71493,-3.06587 12.84454,-7.23868 0.26819,-0.35758 2.14689,-3.31799 2.27102,-3.69042 0.26207,-0.78619 -0.0238,-2.35338 0.2839,-3.12268 0.1859,-0.46475 2.15895,-1.35534 2.56966,-1.71438 1.34823,-1.17863 1.50561,-2.15957 2.27105,-3.69043 0.35501,-0.71005 1.13937,-0.006 1.70326,-0.85163 1.63181,-2.44771 0.75362,-4.991415 1.13551,-7.664739 0.12159,-0.851108 0.46539,-1.647449 0.2839,-2.554912 -0.0999,-0.499683 -0.52498,-0.911615 -0.56778,-1.419395 -0.0102,-0.121065 0.16384,0.18064 0.25776,0.257716 0.47146,0.386917 0.9261,0.799423 1.43672,1.132935 0.39632,0.258854 0.89668,0.344265 1.27019,0.635072 1.2382,0.96405 2.21924,2.219261 3.32884,3.328892 0.93087,0.930866 1.71183,2.004269 2.64556,2.93225 1.66797,1.657661 3.90115,2.630561 5.46405,4.452971 0.52528,0.61249 0.58912,1.57092 0.85164,2.27103 0.76844,2.04915 1.24854,3.12448 0.56776,5.39371 -0.17198,0.57322 -0.46937,1.11294 -0.56776,1.70327 -0.19479,1.16876 0.13458,3.15948 -0.56775,4.25819 -0.58293,0.9119 -1.5306,1.53059 -2.29591,2.29589 -1.53757,1.53758 -2.98818,3.14808 -4.46314,4.74994 -1.69999,1.84627 -2.2512,3.73132 -4.68934,4.92753 -1.3239,0.64953 -2.78451,0.97429 -4.15659,1.51472 -1.61608,0.63655 -3.20437,1.34154 -4.80535,2.0152 -1.83062,0.7703 -3.71857,1.41743 -5.4894,2.31667 -9.70535,4.92847 5.56585,-1.67364 -4.92978,2.9495 -4.96407,2.18658 -10.27369,3.40079 -15.27346,5.50048 -1.77072,0.74362 -3.48249,1.62965 -5.15328,2.57664 -1.04972,0.59498 -10.75954,6.67714 -12.9876,7.79727 -6.06461,3.04888 -12.9619,3.98215 -19.01173,7.01017 -4.32007,2.16224 -5.05656,3.58487 -9.61418,6.41386 -1.24801,0.77466 -2.65508,1.25871 -3.96017,1.93278 -2.00647,1.03633 -3.97422,2.14793 -5.92204,3.29073 -5.68679,3.33656 0.11318,0.0418 -5.64194,3.87654 -3.35998,2.23878 -5.96243,3.02974 -8.71633,6.3396 -0.54442,0.65433 -0.84521,1.47777 -1.26691,2.21717 -0.4109,0.72187 -0.8218,1.44372 -1.23269,2.16559 -0.44178,0.66268 -0.92103,1.30187 -1.32535,1.98806 -0.33584,0.56997 -0.51285,1.23059 -0.891,1.77341 -0.65494,0.94012 -1.61843,1.63628 -2.28288,2.56971 -1.65542,2.3255 -2.63242,4.80664 -4.07758,7.22211 -2.08336,3.48216 0.50502,-1.35056 -1.98978,2.2763 -0.54592,0.79361 -1.47482,3.20356 -1.85617,4.0102 -1.13351,2.39764 -2.46545,4.61139 -3.8567,6.83878 -1.08294,1.7338 -2.56036,3.12817 -3.99309,4.56091 -2.16815,2.16819 -4.28062,4.32343 -6.30882,6.61187 -0.83218,0.93897 -2.1489,1.9935 -2.91725,2.91725 -0.45145,0.54278 -0.73461,1.21035 -1.17488,1.76225 -1.27237,1.595 -3.03672,3.22873 -4.57277,4.57277 -1.27474,1.1154 -2.7741,1.9207 -3.98185,3.13026 -1.63093,1.63337 -0.43948,1.37749 -2.8426,2.27866 -0.39625,0.14858 -0.72484,0.46569 -1.13552,0.56775 -5.79538,1.44031 -10.06586,-1.03584 -15.51674,-1.81454 -2.54781,-0.36397 -5.2309,0.80847 -7.69675,1.01201 -3.11174,0.25686 -6.24465,0 -9.36697,0 -0.64628,0 -6.51601,8.4e-4 -6.51682,0 -0.1989,-0.24075 0.44168,-0.44161 0.66251,-0.66243 0.46214,-0.46214 0.37021,-0.33316 0.85163,-1.13552 0.72955,-1.21591 -0.29622,-1.8483 0,-2.64813 0.0243,-0.0657 0.14018,0 0.21028,0 1.08459,0 0.50324,0.17519 0.81178,-1.63064 z"
       id="path4888" />
    <path
       style="fill:#004455;fill-opacity:1;stroke-width:0.62097"
       d="m 231.24142,-16.892297 c -0.82608,2.138636 1.54229,3.439698 1.71611,5.281362 0.33809,3.5821647 0.20386,16.5744927 -0.96308,20.5992961 -0.81887,2.8243369 -2.13789,5.5274579 -3.69143,8.0506469 -1.20326,1.954274 -3.01482,3.492107 -4.50097,5.255099 -2.08502,2.473427 -4.26001,4.880987 -6.21228,7.453862 -1.78885,2.357509 -3.26817,4.922209 -4.99822,7.320396 -2.13761,2.963151 -4.39921,5.840837 -6.60161,8.75927 -1.99902,2.648939 -3.79456,5.454343 -6.00265,7.942853 -4.42781,4.99012 -10.37268,10.041147 -15.11582,14.924736 -5.69548,5.864105 -11.18177,11.955021 -17.05739,17.656828 -0.65509,0.635721 -6.46849,5.4795 -7.31919,6.213151 -1.55953,1.34499 -3.12958,2.682298 -4.60622,4.112761 -0.64997,0.629661 -1.11795,1.4472 -1.85909,1.973241 -4.73103,3.357915 -10.70697,4.104455 -15.45389,7.400045 -0.9175,0.63698 -1.63875,1.50671 -2.4911,2.22419 -4.12333,3.47087 -8.64019,7.52527 -13.37132,10.20604 -5.03939,2.85544 -10.74708,4.60516 -15.94686,7.14837 -7.836529,3.83283 -14.904618,8.90234 -22.543704,13.04615 -8.192619,4.44406 -16.684276,8.42501 -25.007588,12.6297 -7.026586,3.54963 -14.305589,6.72207 -21.198147,10.51466 -3.870831,2.12989 -6.980114,5.03917 -10.695323,7.36579 -5.946664,3.72413 -12.99727,6.31251 -16.504864,12.68182 -0.300589,0.5458 -2.3090303,4.98931 -2.4040219,5.52361 -0.2005589,1.1279 0.5354737,3.19827 0.2671455,4.31324 -0.1620911,0.67356 -2.744613,2.32032 -3.2451573,2.89949 -1.6430969,1.90127 -1.6550111,3.27122 -2.404048,5.52364 -0.3473978,1.04471 -1.599785,0.25878 -2.21173955,1.53431 -1.77088679,3.69123 0.005716,6.96047 0.039322,10.6836 0.0106884,1.18533 -0.30255483,2.34505 0.14603755,3.54036 0.2469609,0.65819 0.9321397,1.12535 1.1005958,1.80713 0.040149,0.16255 -0.2687608,-0.20982 -0.4171711,-0.29406 -0.74501729,-0.42288 -1.47185998,-0.88429 -2.26051338,-1.22585 -0.61211822,-0.26509 -1.33342812,-0.27119 -1.92031362,-0.58481 -1.9455237,-1.03967 -3.5918027,-2.53231 -5.3876827,-3.79845 -1.5065959,-1.06218 -2.8329463,-2.35139 -4.3429463,-3.409 -2.697383,-1.88921 -6.042935,-2.72185 -8.627811,-4.85845 -0.868759,-0.71809 -1.162901,-2.00869 -1.681125,-2.90391 -1.516893,-2.62019 -2.420891,-3.97826 -1.948298,-7.21713 0.11939,-0.81817 0.422148,-1.61833 0.434491,-2.44358 0.02441,-1.63386 -0.863038,-4.27119 -0.110499,-5.92144 0.624613,-1.36968 1.824296,-2.42053 2.736452,-3.6308 1.832596,-2.43157 3.527437,-4.94327 5.258344,-7.44856 1.994976,-2.88754 2.367438,-5.57492 5.538317,-7.7401 1.7217734,-1.17567 3.7049162,-1.93936 5.5176631,-2.97714 2.1351117,-1.22234 4.21657172,-2.53172 6.3225359,-3.80125 2.4080535,-1.45165 4.9229266,-2.74825 7.2194522,-4.36225 12.5865168,-8.84585 -7.4640314,3.50376 6.2980928,-5.10047 6.509017,-4.06949 13.711,-6.89144 20.288709,-10.85052 2.329562,-1.40214 4.545917,-2.98515 6.691683,-4.64212 1.348139,-1.04105 13.694845,-11.45833 16.586753,-13.4737 7.871536,-5.48562 17.36441,-8.27473 25.219629,-13.7287 5.609263,-3.89456 6.340713,-5.99327 12.141562,-10.847745 1.588444,-1.329297 3.462388,-2.298027 5.152488,-3.502965 2.5984,-1.852497 5.12635,-3.798931 7.61962,-5.783446 7.27928,-5.794032 -0.16795,-0.03198 7.10107,-6.519201 4.24384,-3.787351 7.73205,-5.437071 10.89577,-10.548968 0.62544,-1.010576 0.87246,-2.197708 1.30731,-3.29707 0.42341,-1.073114 0.84683,-2.146199 1.27023,-3.219312 0.47942,-0.999346 1.01651,-1.974963 1.43829,-2.998062 0.35034,-0.84981 0.45816,-1.788053 0.87374,-2.61023 0.71978,-1.423944 1.92517,-2.583729 2.65974,-4.000659 1.83013,-3.530075 2.67375,-7.122635 4.18923,-10.728889 2.18475,-5.19879 -0.42156,1.949645 2.31046,-3.536715 0.59784,-1.200503 1.38907,-4.685564 1.75287,-5.867564 1.08137,-3.51336 2.48078,-6.820084 3.96064,-10.158443 1.15189,-2.59858 2.93052,-4.82196 4.63815,-7.08774 2.58416,-3.428836 5.09284,-6.8277756 7.4547,-10.3894893 0.96908,-1.461398 2.59438,-3.186798 3.47702,-4.613426 0.51859,-0.83826799 0.77408,-1.80933699 1.27502,-2.657552 1.44769,-2.451337 3.57844,-5.063737 5.45018,-7.231522 1.55333,-1.7990047 3.48842,-3.2253597 4.92752,-5.1377987 1.94335,-2.58252 0.32373,-1.971868 3.50833,-3.727716 0.52511,-0.289502 0.91919,-0.793516 1.4745,-1.022867 7.83634,-3.236688 14.36531,-0.806358 22.19088,-0.94657 3.65777,-0.06555 7.17791,-2.252312 10.59947,-3.072332 4.31776,-1.03481 8.77485,-1.374995 13.16228,-2.062493 0.90814,-0.142303 9.15602,-1.435735 9.15731,-1.434925 0.33084,0.283926 -0.52644,0.698397 -0.78965,1.047614 -0.55081,0.73084 -0.44915,0.535022 -0.95448,1.733236 -0.76579,1.815781 0.81049,2.450755 0.56486,3.604743 -0.0202,0.09477 -0.19698,0.03086 -0.29549,0.0463 -1.52404,0.238814 -0.74451,-0.127663 -0.79288,2.398449 z"
       id="path4920" />
  </g>
</svg>
