<?xml version="1.0" encoding="UTF-8" standalone="no"?>
<svg
   id="visual"
   viewBox="0 0 900 600"
   width="900"
   height="600"
   version="1.1"
   sodipodi:docname="waves.svg"
   inkscape:version="1.2.2 (b0a8486541, 2022-12-01)"
   xmlns:inkscape="http://www.inkscape.org/namespaces/inkscape"
   xmlns:sodipodi="http://sodipodi.sourceforge.net/DTD/sodipodi-0.dtd"
   xmlns="http://www.w3.org/2000/svg"
   xmlns:svg="http://www.w3.org/2000/svg">
  <defs
     id="defs5009" />
  <sodipodi:namedview
     id="namedview5007"
     pagecolor="#ffffff"
     bordercolor="#000000"
     borderopacity="0.25"
     inkscape:showpageshadow="2"
     inkscape:pageopacity="0.0"
     inkscape:pagecheckerboard="0"
     inkscape:deskcolor="#d1d1d1"
     showgrid="false"
     inkscape:zoom="1.0292332"
     inkscape:cx="278.84837"
     inkscape:cy="320.14125"
     inkscape:window-width="2560"
     inkscape:window-height="1376"
     inkscape:window-x="1920"
     inkscape:window-y="27"
     inkscape:window-maximized="1"
     inkscape:current-layer="visual" />
  <path
     d="m -188.62893,289.85619 26.53336,-14.16265 c 26.53335,-14.16267 79.600065,-42.48802 133.461514,-66.79446 C 25.359005,184.55738 80.015185,164.26983 137.53479,153.08935 194.92278,141.94413 255.04256,139.94123 311.72525,126.16377 368.53953,112.35104 421.78511,86.799022 478.5994,72.986281 535.28208,59.208817 595.40187,57.205924 652.43721,44.744588 709.60415,32.247975 763.55503,9.3281953 816.49013,-18.961877 869.29362,-47.216683 920.94972,-80.806512 946.77777,-97.601422 l 25.82804,-16.794908 -36.32334,-135.56058 -28.29663,7.58206 c -28.29662,7.58206 -84.88987,22.74617 -141.21991,37.83976 -56.46164,15.12885 -112.52844,30.1519 -168.99007,45.28075 -56.33003,15.09359 -112.92328,30.2577 -169.25331,45.35129 -56.46163,15.128848 -112.52843,30.151898 -168.99007,45.280753 -56.33003,15.093584 -112.92328,30.2577 -169.253302,45.351285 C 33.817537,-8.1421617 -22.249264,6.8808923 -78.710903,22.009743 -135.04093,37.103326 -191.63418,52.267443 -219.93081,59.849502 l -28.29662,7.582059 z"
     fill="#6198ff"
     id="path4988"
     style="opacity:1;fill:#aa8800;stroke-width:1.36255" />
  <path
     d="m -142.07862,463.58431 24.77009,-20.74327 C -92.538447,422.09776 -42.998273,380.6112 9.8052118,352.3564 62.740315,324.06632 118.80712,309.04327 177.38467,301.81115 c 58.44595,-7.19685 119.27105,-6.5675 176.65904,-17.71273 57.5196,-11.18048 111.47047,-34.10026 168.99008,-45.28074 57.38799,-11.14523 118.21308,-10.51588 174.54312,-25.60945 56.46162,-15.12886 108.29659,-45.94538 162.28965,-70.28709 53.86144,-24.30644 109.74938,-42.1028 137.69336,-51.000975 l 27.94398,-8.898186 -34.56009,-128.979963 -25.82804,16.794913 c -25.82805,16.794912 -77.48415,50.384738 -130.28764,78.639549 -52.9351,28.290064 -106.88598,51.209852 -164.05292,63.706462 -57.03533,12.46134 -117.15513,14.46424 -174.89577,24.29333 -57.87225,9.86436 -113.23374,27.51967 -170.04804,41.33239 -56.68268,13.77747 -114.68654,23.67709 -171.36923,37.45455 -56.814281,13.81273 -112.175786,31.46804 -166.168841,55.80973 -53.861449,24.30645 -106.222849,55.26403 -132.403559,70.74281 l -26.1807,15.4788 z"
     fill="#3c80ff"
     id="path4992"
     style="opacity:1;fill:#164450;stroke-width:1.36255" />
  <path
     d="m -118.80347,550.44838 25.475399,-18.11104 C -67.852678,514.22631 -16.901883,478.00423 36.254253,451.06556 89.542012,424.09161 144.9035,406.4363 203.83372,400.52031 c 58.7986,-5.88074 121.03431,0.0136 178.77496,-9.81598 57.87225,-9.86437 111.11782,-35.41641 166.5215,-54.49362 55.27206,-19.04195 112.57062,-31.57382 167.49002,-51.9319 55.05104,-20.39334 107.5913,-48.57761 162.28967,-70.28708 54.56675,-21.67419 111.16,-36.8383 139.45663,-44.42036 l 28.2966,-7.58206 -13.4008,-50.01264 -27.5913,10.2143 c -27.59136,10.2143 -82.77399,30.64292 -136.63544,54.94935 -53.99307,24.34171 -106.53333,52.52598 -162.28966,70.28708 -55.62472,17.72582 -114.33389,24.99321 -170.66392,40.08679 -56.46163,15.12885 -110.41251,38.04864 -168.63742,46.59687 -58.09329,8.51298 -120.32901,2.61915 -178.77496,9.816 -58.57756,7.23212 -113.233754,27.51965 -165.816188,57.12585 -52.450838,29.57093 -102.69632,68.42525 -127.819062,87.8524 l -25.12274,19.42716 z"
     fill="#0066ff"
     id="path4996"
     style="opacity:1;fill:#217844;stroke-width:1.36255" />
  <path
     d="m -95.528311,637.31243 26.533356,-14.16267 c 26.533356,-14.16266 79.600065,-42.488 133.461512,-66.79444 53.993073,-24.34171 108.649253,-44.62925 167.226803,-51.86136 58.44595,-7.19685 120.68167,-1.30302 177.717,-13.76436 57.16695,-12.49661 109.00191,-43.31313 165.11089,-59.7581 55.97738,-16.4097 116.09717,-18.4126 172.42719,-33.50619 56.46164,-15.12885 109.0019,-43.31311 163.34761,-66.33871 54.2141,-22.99032 110.10205,-40.78668 138.04605,-49.68485 l 27.9439,-8.89818 -17.6326,-65.80611 -27.2387,11.53043 c -27.2387,11.53042 -81.71601,34.59127 -135.2248,60.21383 -53.6404,25.65782 -106.18066,53.8421 -162.28965,70.28708 -55.97738,16.40971 -115.39185,21.04484 -171.01658,38.77068 -55.75633,17.76109 -107.59128,48.57761 -165.46353,58.44197 -57.74065,9.82909 -121.38698,-1.32924 -180.53824,3.23537 -59.28287,4.59988 -113.93905,24.88743 -167.579461,50.54525 -53.5087908,25.62256 -105.870192,56.58014 -132.050895,72.05894 l -26.180704,15.47878 z"
     fill="#0059dd"
     id="path5000"
     style="opacity:1;fill:#006680;stroke-width:1.36255" />
  <path
     d="m -36.282464,858.42095 28.2966305,-7.58206 C 20.310785,843.25683 76.904035,828.09271 133.23407,812.99913 c 56.46164,-15.12885 112.52844,-30.1519 168.99007,-45.28076 56.33003,-15.09358 112.92328,-30.25769 169.25331,-45.35128 56.46163,-15.12884 112.52843,-30.1519 168.99007,-45.28075 56.33003,-15.09359 112.92328,-30.25771 169.2533,-45.35129 56.46164,-15.12885 112.52845,-30.15191 168.99009,-45.28076 56.32999,-15.09358 112.92329,-30.2577 141.21989,-37.83975 l 28.2966,-7.58206 -55.7193,-207.94729 -26.1807,15.47878 c -26.1807,15.4788 -78.54209,46.43638 -131.69822,73.37507 -53.28776,26.97393 -107.23863,49.89373 -165.46355,58.44197 -58.09329,8.51297 -120.329,2.61913 -177.36434,15.08047 -57.16694,12.49661 -109.00189,43.31313 -165.81619,57.12586 -56.68269,13.77746 -118.21308,10.51587 -176.30638,19.02884 -58.22491,8.54824 -112.88109,28.83579 -166.168853,55.80974 -53.156136,26.93867 -104.812241,60.5285 -130.640284,77.32341 l -25.828047,16.79493 z"
     fill="#004cbb"
     id="path5004"
     style="opacity:1;fill:#d4aa00;stroke-width:1.36255" />
</svg>
